<?xml version="1.0" encoding="UTF-8"?>
<svg width="80px" height="80px" viewBox="0 0 80 80" version="1.1" xmlns="http://www.w3.org/2000/svg" xmlns:xlink="http://www.w3.org/1999/xlink">
    <!-- Generator: Sketch 58 (84663) - https://sketch.com -->
    <title>默认头像</title>
    <desc>Created with Sketch.</desc>
    <defs>
        <circle id="path-1" cx="40" cy="40" r="40"></circle>
    </defs>
    <g id="APP" stroke="none" stroke-width="1" fill="none" fill-rule="evenodd">
        <g id="默认头像">
            <mask id="mask-2" fill="white">
                <use xlink:href="#path-1"></use>
            </mask>
            <use id="蒙版" fill="#F5F6F7" xlink:href="#path-1"></use>
            <g mask="url(#mask-2)" fill="#DDDDDD" fill-rule="nonzero" id="路径">
                <g transform="translate(15.265018, 19.787986)">
                    <path d="M49.2954903,52.432767 C43.6681114,48.0467216 34.8132651,48.3777439 33.0753981,43.4124096 C32.8271314,41.0124979 32.9098869,39.1918753 32.909887,36.957475 C33.9857094,36.2954304 37.8752213,32.5714296 38.2062435,29.4267178 C39.0337993,29.3439623 40.440644,28.5164065 40.8544219,25.0406725 C41.1026886,23.2200499 40.1923773,22.1442275 39.6958439,21.8132051 C41.1026886,17.5099154 41.7647331,4.02075707 31.8340645,2.69666795 C30.8409977,0.958800947 28.2755749,0.0484896175 24.8825964,0.0484896175 C11.3934381,0.296756311 7.42117061,10.3929362 10.4003712,21.8959607 C9.82108224,22.226983 8.9935265,23.2200499 9.24179319,25.123428 C9.65557106,28.5991621 11.0624158,29.4267178 11.8899715,29.5094734 C12.2209938,32.7369407 16.1105057,36.4609415 17.1863282,37.0402305 C17.1863282,39.2746309 17.2690838,41.0124979 17.020817,43.4951651 C15.1174388,48.6260106 5.60054802,48.2122328 0.0559246723,53.2603227 C6.59361487,58.8049461 15.0346833,62.115169 24.2205518,62.115169 C33.9029538,62.115169 42.6750445,58.4739238 49.2954903,52.432767 Z"></path>
                </g>
            </g>
        </g>
    </g>
</svg>